<?xml version="1.0" standalone="no"?>
<svg xmlns:xlink="http://www.w3.org/1999/xlink" id="wave" style="transform:rotate(180deg); transition: 0.3s" viewBox="0 0 1440 490" version="1.1" xmlns="http://www.w3.org/2000/svg"><defs><linearGradient id="sw-gradient-0" x1="0" x2="0" y1="1" y2="0"><stop stop-color="rgba(25, 118, 210, 1)" offset="0%"/><stop stop-color="rgba(25, 118, 210, 1)" offset="100%"/></linearGradient></defs><path style="transform:translate(0, 0px); opacity:1" fill="url(#sw-gradient-0)" d="M0,441L120,416.5C240,392,480,343,720,334.8C960,327,1200,359,1440,334.8C1680,310,1920,229,2160,187.8C2400,147,2640,147,2880,130.7C3120,114,3360,82,3600,98C3840,114,4080,180,4320,220.5C4560,261,4800,278,5040,310.3C5280,343,5520,392,5760,408.3C6000,425,6240,408,6480,408.3C6720,408,6960,425,7200,400.2C7440,376,7680,310,7920,285.8C8160,261,8400,278,8640,261.3C8880,245,9120,196,9360,147C9600,98,9840,49,10080,65.3C10320,82,10560,163,10800,236.8C11040,310,11280,376,11520,392C11760,408,12000,376,12240,326.7C12480,278,12720,212,12960,171.5C13200,131,13440,114,13680,106.2C13920,98,14160,98,14400,81.7C14640,65,14880,33,15120,32.7C15360,33,15600,65,15840,106.2C16080,147,16320,196,16560,220.5C16800,245,17040,245,17160,245L17280,245L17280,490L17160,490C17040,490,16800,490,16560,490C16320,490,16080,490,15840,490C15600,490,15360,490,15120,490C14880,490,14640,490,14400,490C14160,490,13920,490,13680,490C13440,490,13200,490,12960,490C12720,490,12480,490,12240,490C12000,490,11760,490,11520,490C11280,490,11040,490,10800,490C10560,490,10320,490,10080,490C9840,490,9600,490,9360,490C9120,490,8880,490,8640,490C8400,490,8160,490,7920,490C7680,490,7440,490,7200,490C6960,490,6720,490,6480,490C6240,490,6000,490,5760,490C5520,490,5280,490,5040,490C4800,490,4560,490,4320,490C4080,490,3840,490,3600,490C3360,490,3120,490,2880,490C2640,490,2400,490,2160,490C1920,490,1680,490,1440,490C1200,490,960,490,720,490C480,490,240,490,120,490L0,490Z"/></svg>